<svg xmlns="http://www.w3.org/2000/svg" width="20.59" height="20.59" viewBox="0 0 20.59 20.59">
  <g id="check-circle-duotone_1_" data-name="check-circle-duotone (1)" transform="translate(-8 -8)">
    <path id="Path_4129" data-name="Path 4129" d="M18.295,8A10.295,10.295,0,1,0,28.59,18.295,10.293,10.293,0,0,0,18.295,8Zm6.447,8.108L17.1,23.746a.664.664,0,0,1-.939,0l-4.317-4.317a.664.664,0,0,1,0-.939l.939-.939a.664.664,0,0,1,.939,0l2.908,2.908,6.229-6.229a.664.664,0,0,1,.939,0l.939.939A.664.664,0,0,1,24.742,16.108Z" fill="#85c612" opacity="0.4"/>
    <path id="Path_4130" data-name="Path 4130" d="M101.458,163.084a.664.664,0,0,1-.939,0L96.2,158.766a.664.664,0,0,1,0-.939l.939-.939a.664.664,0,0,1,.939,0l2.908,2.908,6.229-6.229a.664.664,0,0,1,.939,0l.939.939a.664.664,0,0,1,0,.939Z" transform="translate(-84.354 -139.338)" fill="#85c612"/>
  </g>
</svg>
